<svg width="122" height="30" viewBox="0 0 122 30" fill="none" xmlns="http://www.w3.org/2000/svg">
<path fill-rule="evenodd" clip-rule="evenodd" d="M31.7429 10.6571L39.8286 18.7429C40.3714 19.2857 40.1714 20.4857 38.9429 20.4857L23.0571 20.5429C21.9143 20.5429 21.6 19.3429 22.2 18.7429L30.2857 10.6571C30.7143 10.2571 31.3429 10.2571 31.7429 10.6571ZM48.7714 1.54286V19.0286C48.7714 20.1714 50.2857 21.2571 51.6 19.9714L68.8286 2.88572C70.0572 1.65714 69.1143 0 67.8 0H50.3143C49.4572 0 48.7714 0.685713 48.7714 1.54286ZM0 19.0857V2.51429C0 1.42857 1.42857 0.399999 2.68571 1.62857L19.0286 17.8286C20.2 18.9714 19.3143 20.5429 18.0571 20.5429H1.48571C0.657142 20.5429 0 19.8857 0 19.0857ZM72.8 10.0286H63.9143C63.3143 10.0286 62.7714 10.8 63.4286 11.4571L72.1143 20.2286C72.7429 20.8571 73.5714 20.3714 73.5714 19.7143V10.8286C73.6 10.3714 73.2572 10.0286 72.8 10.0286ZM98.9429 29.2H82.6572C81.5714 29.2 80.5714 27.8 81.8 26.5714L97.7143 10.5143C98.8572 9.37143 100.4 10.2571 100.4 11.4857V27.7714C100.371 28.5714 99.7143 29.2 98.9429 29.2ZM112.829 10.3143L121.2 18.6857C121.743 19.2286 121.543 20.4857 120.286 20.4857L103.886 20.5429C102.714 20.5429 102.371 19.3143 103 18.6857L111.371 10.3143C111.771 9.91429 112.429 9.91429 112.829 10.3143ZM85.1714 20.2571L93.5429 11.8857C94.0857 11.3429 93.8857 10.0857 92.6286 10.0857L76.2286 10.0286C75.0572 10.0286 74.7143 11.2571 75.3429 11.8857L83.7143 20.2571C84.1143 20.6571 84.7714 20.6571 85.1714 20.2571Z" fill="#333333"/>
<path d="M2.14286 29.1429V28.8572H0.314283V25.9429H0V29.1429H2.14286ZM37.8572 29.1429H38.5143L38.7714 28.5143H40.2286L40.4857 29.1429H41.1429L39.9143 25.9429H39.1429L37.8572 29.1429ZM39.5143 26.6L40.0572 28.0286H38.9429L39.5143 26.6ZM42.6857 29.1429H43.3429V28H43.6572C44.0572 28.2857 44.5714 29.2 45.2857 29.2C45.4857 29.2 45.6857 29.1429 45.8 29.0857L45.7429 28.5714C45.6286 28.6286 45.4857 28.6572 45.3714 28.6572C45.0286 28.6572 44.7143 28.3143 44.4286 28C44.9429 27.9143 45.3429 27.5429 45.3429 27C45.3429 26.2 44.6857 25.9714 44.0572 25.9714H42.6572V29.1429H42.6857ZM44.1714 26.5143C44.4857 26.5143 44.6857 26.6857 44.6857 27C44.6857 27.2857 44.4572 27.4857 44.1714 27.4857H43.3429V26.5429H44.1714V26.5143ZM48.6572 27.2572V27.8286H49.5143V28.4286C49.3429 28.5429 49.1143 28.6 48.8572 28.6C48.2572 28.6 47.8 28.2286 47.8 27.5714C47.8 26.9143 48.2572 26.5429 48.8286 26.5429C49.2 26.5429 49.5143 26.6572 49.7429 26.8572L50.0572 26.3429C49.7429 26.0857 49.3429 25.9143 48.8286 25.9143C47.8857 25.9143 47.1143 26.5143 47.1143 27.5714C47.1143 28.6 47.8857 29.2 48.8286 29.2C49.3143 29.2 49.8857 29 50.2 28.7714V27.2572H48.6572ZM54.4857 29.1429V28.5714H52.5714V27.8H54.1429V27.2286H52.5714V26.5429H54.4857V25.9714H51.9429V29.1429H54.4857ZM58.6857 29.1429H59.2572V25.9429H58.6V28.0857L56.8 25.9429H56.2286V29.1429H56.8857V27L58.6857 29.1429ZM63.6 26.5429V25.9714H60.8572V26.5429H61.9143V29.1714H62.5714V26.5429H63.6ZM65.2 29.1429H65.8572V25.9429H65.2V29.1429ZM70.2572 29.1429H70.8286V25.9429H70.1715V28.0857L68.3715 25.9429H67.8V29.1429H68.4572V27L70.2572 29.1429ZM72.3715 29.1429H73.0286L73.2857 28.5143H74.7429L75 29.1429H75.6572L74.4286 25.9429H73.6286L72.3715 29.1429ZM74.0286 26.6L74.5715 28.0286H73.4572L74.0286 26.6ZM3.37143 29.1429H3.68571L4.02857 28.3714H5.77143L6.08572 29.1429H6.4L5.08572 25.9429H4.71429L3.37143 29.1429ZM4.94286 26.2857L5.71429 28.1429H4.14286L4.94286 26.2857ZM10.2571 29.1429H10.5714V27.9429H11.2286C11.5714 28.1714 12.0857 29.2 12.8 29.2C13 29.2 13.1714 29.1429 13.2857 29.0857L13.2571 28.8286C13.1429 28.8857 12.9714 28.9429 12.8286 28.9429C12.3714 28.9429 11.9429 28.3143 11.6286 27.9714H11.6857C12.2571 27.9714 12.7429 27.6 12.7429 26.9714C12.7429 26.2572 12.2 25.9714 11.6286 25.9714H10.2571V29.1429ZM11.6571 26.2286C12.0571 26.2286 12.4286 26.4572 12.4286 26.9714C12.4286 27.4286 12.0857 27.6857 11.6571 27.6857H10.5714V26.2286H11.6571ZM14.8571 29.1429H15.1714V25.9429H14.8571V29.1429ZM17.0286 27.5429C17.0286 28.4857 17.7429 29.1714 18.6572 29.1714C19.6 29.1714 20.3143 28.4572 20.3143 27.5429C20.3143 26.6 19.6 25.8857 18.6572 25.8857C17.7143 25.9143 17.0286 26.6 17.0286 27.5429ZM17.3429 27.5429C17.3429 26.7714 17.9143 26.2 18.6572 26.2C19.4286 26.2 20 26.7714 20 27.5429C20 28.3143 19.4286 28.8857 18.6572 28.8857C17.9143 28.8857 17.3429 28.3143 17.3429 27.5429ZM23.9143 25.9429V27.9143C23.9143 28.5143 23.6 28.9143 23 28.9143C22.4 28.9143 22.1429 28.5429 22.0857 27.9429L21.7714 27.9714C21.8286 28.7143 22.2 29.2 23 29.2C23.8 29.2 24.2286 28.6857 24.2286 27.9143V25.9429H23.9143ZM25.7714 29.1429H26.0857L26.4286 28.3714H28.1714L28.4857 29.1429H28.8L27.4857 25.9429H27.1143L25.7714 29.1429ZM27.3143 26.2857L28.0857 28.1429H26.5143L27.3143 26.2857ZM32.4857 27.6V27.8572H34.2286V27.6H32.4857Z" fill="#333333"/>
</svg>
